<svg version="1.2" xmlns="http://www.w3.org/2000/svg" viewBox="0 0 150 50" width="150" height="50">
	<title>logo</title>
	<style>
		.s0 { fill: #000000 } 
	</style>
	<path id="Leozin Fotos" class="s0" d="m27 9.7q2.5 0 2.5 3.9 0 2.5-1.3 5.7-2 4.7-5.3 7.2-1.3 0.9-2.7 1.4-1.3 3.5-3.3 5.1 2.8 2.1 4 2.7 1.3 0.6 2.5 0.6 2 0 2.6-1.4 0.2-0.4 0.2-0.8 0-0.4-0.2-0.7-0.2-0.3-0.5-0.3 0.1-0.3 0.5-0.3 0.9 0 1.2 1.1 0.1 0.3 0.1 0.7 0 0.8-0.6 1.5-0.9 1.1-2.7 1.1-2.2 0-4.2-1.3-1.2-0.7-1.7-1.1-0.5-0.4-1.8-1.4-1.8 1.1-3.9 1.1-3.1 0-4-1.6-0.3-0.4-0.3-0.9 0-0.6 0.5-1.1 0.7-0.9 2-0.9 2.1 0 5.2 2.3 1.3-1.3 2.3-3.9-0.3 0.1-0.8 0.1-4.6 0-6.7-3.7-1.3-2.2-1.3-4.9 0-1 0.2-1.9 0.5-3.6 2.6-5.4 1.5-1.3 3.3-1.3 1.8 0 2.9 1.2 1 1.2 1 3 0 0.3-0.3 0.4-0.2 0.2-0.5 0.1-0.3-0.1-0.3-0.4-0.1-1.6-0.7-2.6-0.6-1-2.2-1-2.5 0-4 2.7-1.3 2.2-1.3 4.9 0 4.8 3.1 6.9 1.7 1.2 4.2 1.2 0.5 0 1.1 0 0.7-1.8 1.4-4.6 0.7-2.8 1.3-4.9 0.6-2.1 1.4-4.2 1.6-4.3 4.5-4.3zm-0.3 0.8q-2 0-3 3.8-0.5 1.8-0.9 3.8-1.2 5.9-2.2 8.8 3.5-1.8 5.7-6.6 1.7-3.9 1.7-7.1-0.1-2.6-1.3-2.7zm-11.4 22.2q-2.7-2-4.7-2-1.2 0-1.6 0.9-0.3 0.9 0.8 1.7 0.8 0.5 2.5 0.5 1.7 0 3-1.1zm14.9-3.8q0 3.4 2.4 3.4 0.9 0 1.9-0.8 1-0.8 1.8-1.9 1.8-2.6 2.5-4.2l0.4-0.8h0.8q-0.5 1.1-1.4 2.8-1 1.6-1.8 2.7-0.8 1.1-2 2.1-1.1 0.9-2.2 0.9-4.1 0-4.1-4.7 0-2.1 1.2-4.3 1.8-3 4.3-3 1.8 0 1.8 2 0 1.4-1.1 3-1.6 2.1-3.7 2.1-0.3 0-0.4-0.2v-0.2q1.5 0 2.8-1.9 1.3-1.9 1.3-3.2 0-0.8-0.7-0.8-1.4 0-2.7 2.6-1.1 2.2-1.1 4.4zm9.6 0.4q0 2.9 1.6 2.9 1.1 0 2-1.3 1.8-2.4 2.2-6.5-1-0.4-1.4-1.3-0.3-0.6-0.3-1 0-0.4 0.1-0.7 0.3-0.8 1-0.8 0.6 0 1 0.9 0.3 0.8 0.3 2.1 0 0.1 0 0.2 0.4 0.1 1 0.1 0.7 0 1.2-0.5 0.5-0.5 0.5-1 0-0.1 0.1-0.1 0.2-0.1 0.3 0 0.1 0 0.1 0.1 0 0.9-0.7 1.6-0.6 0.7-1.8 0.7-0.3 0-0.7 0-0.2 1.9-0.8 3.7-0.6 1.9-1.8 3.3-1.1 1.3-2.4 1.3-2.4 0-3-2.6-0.1-0.8-0.1-1.5 0-1.8 0.8-3.8 1.1-2.7 2.6-3.3 0.8-0.3 1.2-0.1 0.3 0.2 0.3 0.5-1.2 0-2.2 2.4-1.1 2.4-1.1 4.7zm11.2 2.3q-0.5 0-1.1 0.7-0.5 0.7-0.9 0.7-0.4 0-0.4-0.2 0-0.1 0-0.1 3.8-4.8 7.7-8.9-0.8 0.2-1.7 0.2-2.4 0-3-1.4-0.2-0.4-0.2-0.8 0-0.4 0.4-0.9 0.4-0.5 1-0.5 0.5 0 0.7 0.2 0.2 0.2 0.3 0.6-0.4 0-0.5 0.4 0 0.2 0 0.3 0 0.5 0.7 0.9 0.5 0.1 1.5 0.1 1 0 2-0.3 1.5-1.5 2-1.5 0.2 0 0.2 0.2 0 0.1-0.4 0.7-0.4 0.6-1.6 1.3-2.1 2.3-6.6 7.6 0.1-0.1 0.5-0.1 0.3 0 1.5 0.6 1.1 0.5 2 0.5 1.6 0 2.2-1.3 0.2-0.4 0.2-0.8 0-0.4-0.2-0.6-0.2-0.3-0.5-0.3 0-0.4 0.4-0.4 1 0 1 1.7 0 1.1-0.9 2.3-0.9 1.1-2.5 1.1-0.8 0-1.4-0.3-0.6-0.3-0.9-0.7-0.9-1-1.5-1zm13.6-15.4q0.7 0 0.7 0.9 0 0.9-0.9 1.4-0.4 0.3-0.7 0.3-0.4 0-0.5-0.3l-0.1-0.1q0.3 0 0.4-0.5 0.1-0.6 0.3-1.1 0.3-0.6 0.8-0.6zm-1.8 16.1q0.8 0 2.1-1.9 1.3-1.9 2.2-3.9l1-1.9h0.8q-0.2 0.3-0.5 0.9-0.2 0.6-1 2.1-0.8 1.4-1.5 2.5-0.7 1.2-1.6 2.1-0.9 0.9-1.6 0.9-2 0-2-2.7 0-2 1.1-6.6 0.1-0.4 0.2-0.7 0.1-0.2 0.2-0.6 0-0.4 0.1-0.8 0.2-0.6 0.5-0.6 0.5 0 0.8 0.8 0.1 0.3 0.1 0.8 0 0.4-0.1 1-0.2 0.5-0.4 1.5-0.3 1-0.4 1.6-0.1 0.7-0.3 1.6-0.3 1.5-0.3 2.8 0 1.1 0.6 1.1zm4.9 0.7q-0.8 0-0.8-1.2 0-0.6 1.6-9.4 0-0.6 0.5-0.6 0.5 0 0.7 0.8 0.2 0.3 0.2 0.8 0 0.5-0.2 1l-0.4 2.2h0.2q2.5-5.6 4.8-5.6 0.9 0 1.4 0.5 0.4 0.6 0.4 1.5 0 1-0.7 4.1-0.8 3.2-0.8 4.4 0 1.9 0.7 1.9 0 0.2-0.3 0.4-0.2 0.2-0.5 0.2-1.7 0-1.7-2.6 0-1.6 0.9-4.7 0.8-3.2 0.8-4.1 0-0.9-0.7-0.9-1 0-2.4 2.6-1.4 2.7-2.3 5.1-0.8 2.4-0.9 3-0.2 0.6-0.5 0.6zm30.6-9.7q-0.8-0.2-1.3-0.6v-0.5q0.5 0.4 1.3 0.5 0.9-5.1 1.3-6.1 0.4-1 0.8-1.7 0.9-1.4 2.3-1.4 0.4 0 0.5 0.3l0.1 0.2q-0.7 0-1.2 0.4-0.5 0.5-0.8 1.1-0.3 0.7-0.5 1.8-0.4 1.8-0.5 3.3-0.2 1.5-0.2 1.6 0 0.3 0 0.6 1.2-0.2 2.1-0.7 0.2-1.7 1-3 0.7-1.3 1.9-1.3 0.7 0 0.7 0.8 0 1.5-1.7 2.9-0.4 0.4-0.8 0.7-0.1 0.6-0.1 1 0 2.1 1 2.1 0 0.3-0.5 0.3-0.7 0-1.1-0.8-0.4-0.8-0.4-2-1 0.4-2.2 0.5-0.7 6-1.8 8-0.5 1.1-1.3 2-1.4 1.8-4.4 1.8-1.4 0-2.4-0.5-1-0.6-1.5-1.5-0.5-1.1-0.5-2.2 0-1 0.3-1.9 0.3-1 0.8-1.9 0.6-0.8 1.5-1.4 0.9-0.5 1.9-0.5 0.5 0 0.7 0.4l0.1 0.1q-2.3 0-3.7 2.1-0.9 1.5-0.9 3 0 0.5 0.1 1 0.4 2 2.2 2.4 0.5 0.1 1.2 0.1 0.8 0 1.6-0.3 0.9-0.5 1.5-1.3 0.6-0.9 1-1.8 0.5-0.9 0.8-2.4 0.5-2.2 1.1-5.2zm11.1-13.1q0.9 0 0.9 1 0 0.9-0.8 1.6-0.9 0.7-2.8 0.7-1.9 0-5.1-1-3.3-1.1-5-1.1-3.6 0-5.6 2.9-1.4 2-1.4 4.2 0 3.2 2.2 4.3 0.8 0.3 1.7 0.3 0 0.2-0.2 0.4-0.2 0.3-0.5 0.3-2.9 0-4.1-2.5-0.5-1.1-0.5-2.4 0-1.2 0.5-2.6 1.1-3.1 3.9-4.5 1.8-0.9 3.8-0.9 2 0 5 0.9 3.1 0.9 4.7 0.9 2.4 0 2.7-1.1 0.2-0.6-0.1-0.7 0-0.1-0.1-0.1 0.2-0.6 0.8-0.6zm-4.4 8.2q-0.4 0-0.9 0.9-0.4 0.8-0.7 2.1 1.4-1.1 1.8-2.4 0-0.3 0-0.4 0-0.2-0.2-0.2zm3.2 10.9q0 2.9 1.6 2.9 1 0 1.9-1.3 1.8-2.4 2.2-6.5-1-0.4-1.4-1.3-0.2-0.6-0.2-1 0-0.4 0.1-0.7 0.2-0.8 0.9-0.8 0.7 0 1 0.9 0.4 0.8 0.4 2.1 0 0.1 0 0.2 0.3 0.1 1 0.1 0.6 0 1.1-0.5 0.5-0.5 0.5-1 0-0.1 0.2-0.1 0.1-0.1 0.2 0 0.2 0 0.2 0.1 0 0.9-0.7 1.6-0.7 0.7-1.8 0.7-0.3 0-0.8 0-0.1 1.9-0.8 3.7-0.6 1.9-1.7 3.3-1.1 1.3-2.4 1.3-2.5 0-3-2.6-0.2-0.8-0.2-1.5 0-1.8 0.9-3.8 1-2.7 2.6-3.3 0.8-0.3 1.1-0.1 0.3 0.2 0.4 0.5-1.3 0-2.3 2.4-1 2.4-1 4.7zm9.6-8.5q0-0.3 0.4-0.3h1.4q0.2-0.6 0.4-1.4l0.4-1.5q0.1-0.6 0.3-1.2 0.1-0.5 0.5-0.5 0.4 0 0.6 0.7 0.1 0.3 0.1 0.8 0 0.4-0.2 1.1l-0.5 2h1.7q0.3 0 0.4 0.1 0.1 0.2 0 0.4-0.1 0.1-0.4 0.1h-1.9q-1.7 6.5-1.7 9.2 0 2 0.9 2 0.7 0 2-1.9 1.4-1.9 2.3-3.9l1-1.9h0.7q-0.1 0.3-0.4 0.9-0.3 0.6-1.1 2.1-0.7 1.4-1.5 2.5-0.7 1.2-1.6 2.1-0.8 0.9-1.6 0.9-0.7 0-1.3-0.5-0.5-0.5-0.7-1.4-0.1-0.9-0.1-1.9 0-2.2 1.5-8.2h-1.2q-0.3 0-0.3-0.1-0.1-0.2-0.1-0.2zm8.3 8.5q0 2.9 1.6 2.9 1 0 2-1.3 1.7-2.4 2.1-6.5-1-0.4-1.3-1.3-0.3-0.6-0.3-1 0-0.4 0.1-0.7 0.3-0.8 0.9-0.8 0.7 0 1 0.9 0.4 0.8 0.4 2.1 0 0.1 0 0.2 0.3 0.1 1 0.1 0.7 0 1.2-0.5 0.5-0.5 0.5-1 0-0.1 0.1-0.1 0.1-0.1 0.3 0 0.1 0 0.1 0.1 0 0.9-0.7 1.6-0.7 0.7-1.8 0.7-0.3 0-0.7 0-0.2 1.9-0.9 3.7-0.6 1.9-1.7 3.3-1.1 1.3-2.4 1.3-2.4 0-3-2.6-0.1-0.8-0.1-1.5 0-1.8 0.8-3.8 1-2.7 2.6-3.3 0.8-0.3 1.1-0.1 0.3 0.2 0.4 0.5-1.3 0-2.3 2.4-1 2.4-1 4.7zm13.8-11.3h0.1q0.2 0.1 0.4 0.3 0.1 0.2 0.1 0.4 0 0.2-0.4 0.9-0.4 0.6-0.4 1.1 0 0.3 0.2 0.7 0.1 0.3 0.7 1.7 1.2 2.9 1.2 5.3 0 2.2-1.2 3.8-1.2 1.5-3 1.5-1.7 0-1.7-2.1 0-2.1 1.5-4.5 0.9-1.4 1.9-2.1 0.3-0.1 0.3 0.1 0.1 0.3-0.1 0.5-1.6 1.2-2.5 3.7-0.8 2.3-0.2 3.2 0.3 0.3 0.7 0.3 1.2 0 1.9-1.6 0.7-1.7 0.7-4.1 0-2.2-0.5-4-0.5-1.8-0.6-2.1-0.8 1.6-1.8 3.6h-0.7q1.6-3.2 2.4-4.8 0.1-1.8 1-1.8z"/>
</svg>